<?xml version="1.0" encoding="UTF-8" standalone="no"?>
<svg
   width="48"
   height="48"
   version="1.1"
   viewBox="0 0 12.69975 12.69975"
   id="svg10"
   sodipodi:docname="org.nicotine_plus.Nicotine-disconnect.svg"
   inkscape:version="1.3.2 (091e20ef0f, 2023-11-25)"
   xmlns:inkscape="http://www.inkscape.org/namespaces/inkscape"
   xmlns:sodipodi="http://sodipodi.sourceforge.net/DTD/sodipodi-0.dtd"
   xmlns:xlink="http://www.w3.org/1999/xlink"
   xmlns="http://www.w3.org/2000/svg"
   xmlns:svg="http://www.w3.org/2000/svg">
  <defs
     id="defs14">
    <filter
       id="filter1255"
       x="-0.059940839"
       y="-0.059957326"
       width="1.1198817"
       height="1.1199147"
       color-interpolation-filters="sRGB">
      <feGaussianBlur
         stdDeviation="0.064633745"
         id="feGaussianBlur7" />
    </filter>
    <filter
       inkscape:collect="always"
       style="color-interpolation-filters:sRGB"
       id="filter3"
       x="-0.13912554"
       y="-0.15581932"
       width="1.2782511"
       height="1.3116386">
      <feGaussianBlur
         inkscape:collect="always"
         stdDeviation="8.430934"
         id="feGaussianBlur3" />
    </filter>
    <linearGradient
       inkscape:collect="always"
       xlink:href="#linearGradient5"
       id="linearGradient6"
       x1="-9.9871616"
       y1="-13.826643"
       x2="131.47385"
       y2="142.43074"
       gradientUnits="userSpaceOnUse"
       gradientTransform="matrix(1.130066,0,0,1.1337106,16.823597,11.309414)" />
    <linearGradient
       id="linearGradient5"
       inkscape:collect="always">
      <stop
         style="stop-color:#ffcba7;stop-opacity:1;"
         offset="0"
         id="stop5" />
      <stop
         style="stop-color:#ff8f44;stop-opacity:1;"
         offset="1"
         id="stop6" />
    </linearGradient>
    <linearGradient
       inkscape:collect="always"
       xlink:href="#linearGradient5"
       id="linearGradient2"
       x1="-11.906013"
       y1="-6.349875"
       x2="-0.79373169"
       y2="-6.349875"
       gradientUnits="userSpaceOnUse" />
  </defs>
  <sodipodi:namedview
     id="namedview12"
     pagecolor="#ffffff"
     bordercolor="#666666"
     borderopacity="1.0"
     inkscape:showpageshadow="2"
     inkscape:pageopacity="0.0"
     inkscape:pagecheckerboard="0"
     inkscape:deskcolor="#d1d1d1"
     showgrid="false"
     inkscape:zoom="5.2149125"
     inkscape:cx="36.050461"
     inkscape:cy="64.047096"
     inkscape:window-width="1920"
     inkscape:window-height="998"
     inkscape:window-x="0"
     inkscape:window-y="0"
     inkscape:window-maximized="1"
     inkscape:current-layer="svg10" />
  <rect
     transform="matrix(0,-1,-1,0,0,0)"
     x="-11.906013"
     y="-11.906015"
     width="11.112281"
     height="11.112281"
     rx="5.5562186"
     ry="5.5562186"
     fill="#4c627f"
     id="rect2"
     style="stroke-width:0.77779;fill:url(#linearGradient2)" />
  <rect
     transform="matrix(0,-1,-1,0,0,0)"
     x="-10.871563"
     y="-10.877778"
     width="9.055028"
     height="9.055028"
     rx="4.527514"
     ry="4.527514"
     id="rect4"
     style="fill:#303a49;fill-opacity:1;opacity:1" />
  <g
     id="g3"
     transform="matrix(0.04659551,0,0,0.04657385,3.5619157,3.3633418)"
     style="stroke-width:1.60045">
    <path
       fill="#f9aa40"
       d="M -4.7229076,4.2663576 V 123.73389 a 5.1942403,5.1942403 0 0 0 5.19424028,5.19424 H 16.054053 a 5.1942403,5.1942403 0 0 0 5.194241,-5.19424 V 25.043319 h 5.19424 c 2.869818,0 7.557619,-0.105183 10.352121,0.516827 5.40201,1.202467 8.705546,4.506003 9.908013,9.908013 0.623309,2.794502 0.516827,7.482303 0.516827,10.352121 v 77.91361 a 5.1942403,5.1942403 0 0 0 5.19424,5.19424 h 15.582721 a 5.1942403,5.1942403 0 0 0 5.19424,-5.19424 v -15.58273 h 20.776961 v 15.58273 a 5.1942403,5.1942403 0 0 0 5.19424,5.19424 h 15.582723 a 5.1942403,5.1942403 0 0 0 5.19424,-5.19424 v -15.58273 h 15.58272 a 5.1942403,5.1942403 0 0 0 5.19424,-5.19424 V 92.568442 a 5.1942403,5.1942403 0 0 0 -5.19424,-5.19424 H 119.93886 V 66.597241 a 5.1942403,5.1942403 0 0 0 -5.19424,-5.19424 H 99.161897 a 5.1942403,5.1942403 0 0 0 -5.19424,5.19424 V 87.374202 H 73.190696 V 45.82028 c 0,-2.869818 0.02987,-7.53035 -0.318147,-10.375495 C 70.772777,18.281717 58.488399,2.3159204 42.000582,-0.49156637 c -2.824368,-0.4804673 -7.49399,-0.4363162 -10.363808,-0.4363162 H 0.47133268 A 5.1942403,5.1942403 0 0 0 -4.7229076,4.2663576 Z"
       id="path2"
       style="opacity:0.25;fill:#000000;fill-opacity:1;stroke-width:2.07819;filter:url(#filter3)" />
    <path
       fill="#f9aa40"
       d="M -4.7218437,4.2680101 V 123.73309 a 5.1941339,5.1941339 0 0 0 5.19413321,5.19414 H 16.054689 a 5.1941339,5.1941339 0 0 0 5.194137,-5.19414 V 25.044546 h 5.194133 c 2.869757,0 7.557463,-0.105184 10.35191,0.516815 5.401896,1.202444 8.705367,4.505912 9.907808,9.907812 0.623297,2.794443 0.516818,7.482149 0.516818,10.351906 v 77.912011 a 5.1941339,5.1941339 0 0 0 5.194133,5.19414 h 15.5824 a 5.1941339,5.1941339 0 0 0 5.194133,-5.19414 v -15.58241 h 20.776536 v 15.58241 a 5.1941339,5.1941339 0 0 0 5.194133,5.19414 h 15.5824 a 5.1941339,5.1941339 0 0 0 5.19414,-5.19414 v -15.58241 h 15.5824 a 5.1941339,5.1941339 0 0 0 5.19413,-5.19413 V 92.568285 a 5.1941339,5.1941339 0 0 0 -5.19413,-5.194134 h -15.5824 V 66.597615 a 5.1941339,5.1941339 0 0 0 -5.19414,-5.194133 h -15.5824 a 5.1941339,5.1941339 0 0 0 -5.194133,5.194133 V 87.374151 H 73.190161 V 45.821079 c 0,-2.869757 0.02981,-7.530195 -0.318143,-10.375282 C 70.77229,18.283082 58.488163,2.3176125 42.000684,-0.4898186 39.176375,-0.9702727 34.506849,-0.926123 31.637088,-0.926123 H 0.47228596 A 5.1941339,5.1941339 0 0 0 -4.7218437,4.2680101 Z"
       id="path2-7"
       style="fill:url(#linearGradient6);fill-opacity:1;stroke-width:2.07815" />
  </g>
  <ellipse
     style="fill:#435a66;fill-opacity:1;stroke:#ff0000;stroke-width:0.813842;stroke-linejoin:round;stroke-dasharray:none;stroke-opacity:1;paint-order:stroke fill markers"
     id="path1"
     cx="8.6006413"
     cy="4.6695395"
     rx="0.65139133"
     ry="0.65139139" />
  <ellipse
     style="fill:#435a66;stroke:#435a66;stroke-width:0.813842;stroke-linejoin:round;stroke-opacity:1;paint-order:stroke fill markers"
     id="path3-3"
     cx="8.6006413"
     cy="4.6695395"
     rx="0.25312087"
     ry="0.25452426" />
</svg>
